<svg version="1" xmlns="http://www.w3.org/2000/svg" width="356" height="356" viewBox="0 0 267.000000 267.000000"><path d="M116.2 4C86.1 8.3 59.7 21.9 38.7 44 21.6 62 10.9 82.5 5.4 108.1c-2.6 11.8-2.6 38 0 49.8 5.9 27.3 16.8 47.4 36 66.6 19.5 19.4 39.5 30.2 66.7 36.1 11.8 2.6 38 2.6 49.8 0 27.3-5.9 47.4-16.7 66.7-36 19.3-19.3 30.1-39.4 36-66.7 1.4-6.2 1.8-12.7 1.8-24.9s-.4-18.7-1.8-24.9c-5.9-27.3-16.7-47.4-36-66.7-19-18.9-38.4-29.6-64.6-35.5-9.8-2.2-34-3.3-43.8-1.9zM87 128v42h40v10H75V86h12v42zm88.1-38.3c13.9 4.5 20.4 20.3 14.9 36-3.1 8.8-8.2 15.6-22.8 30.5L153.6 170H194v10h-58v-3.9c0-3.7.6-4.5 11.1-14.3 13.1-12.1 23.9-24.3 28-31.3 8.2-14.4 4.7-28.4-8-31.5-6.4-1.5-14.1 0-20.3 3.9l-4.5 2.9-1.7-3.4c-2.3-4.8-2.1-5.6 2.2-8.3 8.9-5.8 22.3-7.6 32.3-4.4z"/></svg>