<?xml version="1.0" encoding="utf-8"?>
<!-- Generator: Adobe Illustrator 18.0.0, SVG Export Plug-In . SVG Version: 6.00 Build 0)  -->
<!DOCTYPE svg PUBLIC "-//W3C//DTD SVG 1.1//EN" "http://www.w3.org/Graphics/SVG/1.1/DTD/svg11.dtd">
<svg version="1.1" id="Layer_1" xmlns="http://www.w3.org/2000/svg" xmlns:xlink="http://www.w3.org/1999/xlink" x="0px" y="0px"
	 viewBox="0 0 28 28" enable-background="new 0 0 28 28" xml:space="preserve">
<g>
	<path fill="#3B6FC8" d="M18.7,11.7c-0.2,0.5-0.5,1-0.8,1.4c-0.3,0.4-0.7,0.7-1.1,1c-0.4,0.3-0.7,0.5-0.9,0.8
		c-0.3,0.3-0.5,0.6-0.7,1c-0.2,0.3-0.3,0.8-0.3,1.4v0.4h-2.9h-0.4l0-0.4c0-0.3,0-0.5,0-0.8c0-0.5,0.1-1,0.2-1.4
		c0.2-0.6,0.4-1.1,0.7-1.5c0.3-0.4,0.6-0.8,1-1.1c0.3-0.3,0.7-0.6,0.9-0.9c0.3-0.3,0.5-0.5,0.7-0.8c0.1-0.2,0.2-0.5,0.2-0.8
		c0-0.5-0.1-0.8-0.3-1c-0.2-0.2-0.6-0.4-1.3-0.4c-0.2,0-0.4,0-0.7,0.1c-0.3,0.1-0.5,0.1-0.8,0.2c-0.3,0.1-0.5,0.2-0.7,0.3
		s-0.4,0.2-0.6,0.4l-0.4,0.3L8.9,7l0.3-0.2c0.6-0.4,1.3-0.8,2.1-1C12,5.5,13,5.4,14.1,5.4c1.5,0,2.7,0.4,3.6,1.1
		C18.6,7.3,19,8.3,19,9.6C19,10.4,18.9,11.1,18.7,11.7z M14.9,22.4c-0.4,0.4-1,0.6-1.6,0.6h0c-0.6,0-1.2-0.2-1.6-0.6s-0.6-1-0.6-1.6
		s0.2-1.2,0.6-1.5c0.4-0.4,1-0.6,1.6-0.6c0.6,0,1.2,0.2,1.6,0.6c0.4,0.4,0.6,0.9,0.6,1.5S15.3,22,14.9,22.4z M14,0C6.3,0,0,6.3,0,14
		s6.3,14,14,14s14-6.3,14-14S21.7,0,14,0z"/>
</g>
</svg>
