<?xml version="1.0" encoding="utf-8"?>
<!-- Generator: Adobe Illustrator 18.1.1, SVG Export Plug-In . SVG Version: 6.00 Build 0)  -->
<svg version="1.1" id="Layer_1" xmlns="http://www.w3.org/2000/svg" xmlns:xlink="http://www.w3.org/1999/xlink" x="0px" y="0px"
	 viewBox="0 0 180 180" enable-background="new 0 0 180 180" xml:space="preserve">
<path fill="#3B6FC8" d="M163.8,89.8c0-41-33.2-74.2-74.2-74.2S15.5,48.8,15.5,89.8c0,28.9,16.5,53.9,40.6,66.1
	c-0.1-1.4-0.2-2.4-0.2-2.9c-0.2-2.6-1.5-15.3-1.6-18c-0.1-2.7-0.1-2.7-0.2-3.9c-0.4-3.9-0.7-5.1-1.6-5.5c-0.9-0.3-2.5-1-4.3-2.7
	s-3.5-2-5.4-4.7c-1.9-2.7-2.3-3.2-2.9-3.7c-0.7-0.5-1.7-1.3-3-2.4c-1.3-1.1-2.4-1.5-3-1.9c-0.6-0.4-0.8-1.1-0.2-1.7s1.1-1,2.5-1
	c1.4,0,4,0.8,5.9,2.4c1.8,1.6,2.8,2.4,3.6,2.7c2.4,0.9,3.4-1.7,3.3-4.4c-0.1-2-0.4-3.7-0.8-5.3c-0.7-2.3-1.2-3.2-1.7-4.3
	c-0.5-1.1-0.8-1.8-1.3-4.1c-0.5-2.3-1.3-5.3-1.6-6.3c-0.7-2.4,1.6-3.2,2.6-2.3c0.6,0.5,1.3,2.3,1.8,3.7c0.8,2.2,1.8,3.7,2.4,5.3
	s1.5,4.5,2,5.3c0.5,0.8,2.2,1.2,2.2,0.5c-0.1-0.9-0.6-2.8-1-4.3s-0.6-3.3-0.8-5.6c-0.2-2.3-0.5-5.5-0.7-6.5c-0.1-1-0.1-1.9,0.8-2.6
	c0.9-0.7,2.6-0.5,2.9,0.9c0.3,1.2,1,4.8,1.2,6.5c0.3,1.5,1,3.7,1.2,6.4c0.3,2.7,0.3,4.4,0.7,4.8c0.4,0.4,1.2,1,1.2-0.2
	c0-1.1-0.5-4.2-0.1-6.8c0.4-2.6,0.6-4.2,0.7-5.7s-0.2-3.4,1.1-3.9c1.1-0.5,2.4,0,2.6,1.7c0.2,1.7,0.1,3.8,0.1,5.3s0.2,2.9,0.1,5.3
	s-0.3,3.9-0.3,5.8c0.1,1.8,1.5,2.1,1.7,0.8c0.2-1.3,0.4-3.1,0.9-4.9c0.6-1.8,1.1-4.6,1.3-5.9c0.5-2.5,2.8-2.2,3.3-0.9
	c0.6,1.6-0.1,2.9-0.3,6c-0.3,3.5-2.1,7.2-1.8,9.5c0.3,2.3,0.6,4,0.6,7.6c0,4.8-1,9.8-1.6,11.2c-0.7,1.6-1.4,2.4-1.2,3.6
	c0.1,0.8,0,1.6,1.1,6.6c0.7,3,2.9,16.3,4.7,26.8c1.7,0.4,3.4,0.7,5.1,1c-0.1-1.2,0-3,0.2-4.8c0.3-3.1,1.1-28.7,1.3-32.3
	c0.2-3.6,0.7-21.1,1-24.7c0.3-3.7,0.3-3.7,0.4-5.3c0.2-5.3-0.1-7.1-1.2-7.7c-1.1-0.6-3.2-1.8-5.4-4.4c-2.1-2.6-4.4-3.3-6.5-7.4
	s-2.5-4.8-3.4-5.5c-0.8-0.7-2-2-3.6-3.7c-1.6-1.7-3-2.5-3.8-3.1c-0.8-0.6-0.9-1.6,0-2.4c0.9-0.7,1.7-1.1,3.6-0.9s5.4,1.8,7.6,4.2
	c2.2,2.4,3.4,3.8,4.4,4.3c3.1,1.7,4.9-1.7,5.2-5.4c0.2-2.7,0.1-5.1-0.2-7.4c-0.5-3.2-1-4.6-1.5-6.2c-0.5-1.6-0.8-2.6-1.1-5.8
	c-0.3-3.2-0.8-7.4-1-8.9c-0.5-3.4,2.7-4.1,4-2.7c0.7,0.8,1.3,3.3,1.8,5.3c0.7,3.1,1.8,5.3,2.3,7.6c0.6,2.3,1.3,6.3,1.8,7.5
	s2.8,2,2.9,1c0.1-1.3-0.3-4-0.6-6c-0.3-2-0.2-4.6-0.1-7.8c0.2-3.2,0.2-7.6,0.2-9c0-1.4,0.2-2.6,1.5-3.3c1.4-0.8,3.6-0.2,3.7,1.7
	c0.1,1.7,0.5,6.7,0.6,9c0.1,2.1,0.7,5.2,0.6,8.9c-0.1,3.7-0.3,6,0.2,6.7c0.5,0.7,1.4,1.5,1.6-0.1c0.2-1.4,0.1-5.8,1-9.3
	s1.5-5.6,1.9-7.6c0.4-2,0.3-4.6,2.2-5.2c1.5-0.5,3.3,0.4,3.2,2.7c-0.1,2.4-0.5,5.1-0.9,7.3c-0.3,2.1-0.3,4-0.8,7.2
	c-0.5,3.2-1.1,5.3-1.4,7.8c-0.2,2.4,1.7,3.1,2.1,1.4c0.5-1.7,1-4.2,2.1-6.5c1.1-2.3,2.2-6.1,2.8-7.8c1.1-3.3,4.2-2.5,4.6-0.7
	c0.5,2.2-0.6,3.9-1.5,8.1c-1,4.8-4,9.4-4,12.6c0,3.2,0.1,5.5-0.5,10.5c-0.9,6.5-3,13.1-4.1,14.9c-1.2,2-2.3,3.1-2.3,4.6
	c0,1.2-0.3,2.2,0.4,9.1c0.7,6.9,2.4,53,2.4,55.5c0,1.3,0.1,2.6,0,3.6c1.6-0.3,3.3-0.6,4.9-1c1.8-10.5,4-23.8,4.7-26.7
	c1.1-4.9,1-5.7,1.1-6.6c0.2-1.1-0.5-2-1.2-3.6c-0.6-1.4-1.6-6.4-1.6-11.2c0-3.6,0.3-5.3,0.6-7.6c0.3-2.3-1.5-5.9-1.8-9.5
	c-0.2-3.1-0.9-4.4-0.3-6c0.5-1.3,2.8-1.5,3.3,0.9c0.3,1.3,0.8,4.2,1.3,5.9c0.6,1.8,0.7,3.6,0.9,4.9c0.2,1.3,1.6,1,1.7-0.8
	c0.1-1.8-0.2-3.4-0.3-5.8s0.2-3.7,0.1-5.3s-0.1-3.6,0.1-5.3c0.2-1.7,1.5-2.2,2.6-1.7c1.3,0.6,1,2.5,1.1,3.9s0.3,3.1,0.7,5.7
	c0.4,2.6-0.1,5.8-0.1,6.8c0,1.2,0.8,0.6,1.2,0.2c0.4-0.4,0.5-2.1,0.7-4.8c0.3-2.7,1-4.9,1.2-6.4c0.3-1.6,1-5.2,1.2-6.5
	c0.3-1.4,1.9-1.6,2.9-0.9c0.9,0.6,0.9,1.6,0.8,2.6c-0.1,1-0.5,4.2-0.7,6.5c-0.2,2.3-0.4,4.2-0.8,5.6c-0.4,1.4-0.9,3.3-1,4.3
	c0,0.7,1.7,0.3,2.2-0.5c0.5-0.8,1.4-3.6,2-5.3s1.6-3.1,2.4-5.3c0.5-1.4,1.2-3.2,1.8-3.7c1.1-1,3.3-0.2,2.6,2.3c-0.3,1-1,4.1-1.6,6.3
	s-0.8,3-1.3,4.1s-1,2-1.7,4.3c-0.5,1.6-0.8,3.3-0.8,5.3c-0.1,2.7,0.8,5.3,3.3,4.4c0.8-0.3,1.8-1.2,3.6-2.7c1.8-1.6,4.5-2.4,5.9-2.4
	c1.4,0,2,0.4,2.5,1s0.4,1.3-0.2,1.7c-0.6,0.4-1.7,0.8-3,1.9c-1.3,1.1-2.3,1.9-3,2.4c-0.7,0.5-1,1-2.9,3.7c-1.9,2.7-3.6,3-5.4,4.7
	s-3.4,2.4-4.3,2.7c-0.9,0.3-1.2,1.6-1.6,5.5c-0.1,1.2-0.1,1.2-0.2,3.9c-0.1,2.7-1.4,15.4-1.6,18c0,0.5-0.1,1.5-0.2,2.8
	C147.4,143.5,163.8,118.6,163.8,89.8z"/>
</svg>
