<?xml version="1.0" encoding="utf-8"?>
<!-- Generator: Adobe Illustrator 18.1.1, SVG Export Plug-In . SVG Version: 6.00 Build 0)  -->
<svg version="1.1" id="Layer_1" xmlns="http://www.w3.org/2000/svg" xmlns:xlink="http://www.w3.org/1999/xlink" x="0px" y="0px"
	 viewBox="0 0 1200 1200" enable-background="new 0 0 1200 1200" xml:space="preserve">
<g id="Ag2WMD.tif">
	<g>
		<g>
			<path fill="#FEFEFE" d="M445-3c217.2,0,434.3,0,651.5-0.1c3.7,0,4.6,0.8,4.6,4.6c-0.1,234.8-0.1,469.7-0.1,704.5
				c-1.4,0.3-1.7-0.8-2-1.7c-0.5-1.6-0.8-3.3-1-4.9c-2-18.3-9.7-33.9-22.3-47c-11.6-12.1-23.2-24.4-35.9-35.4
				c-8.5-7.4-18.1-13.2-28.8-16.7c-10.4-3.4-18.1-10.2-24.9-18.4c-7.8-9.5-14.5-19.9-22.5-29.3c-25.6-29.9-57.4-48.7-96.6-54.4
				c-6.3-0.9-12.5-2.1-18.9-1.9c-4.6,0.2-6.9-2.8-8.9-6.2c-6.4-10.9-13.1-21.7-21.3-31.4c-19.1-22.6-42.7-36.6-72.6-39.6
				c-29.8-3.1-56.4,4.4-80.4,22.1c-1.1,0.8-2.1,1.6-3.2,2.3c-2.8,1.9-4.7,1.1-5.9-1.9c-1.6-4-2.9-8.2-4.2-12.3
				c-17-53.2-35.5-105.8-53.8-158.5c-16.6-47.8-33.7-95.5-51.4-143c-8.3-22.3-16.5-44.7-26.4-66.4c-9.7-21.4-22.6-40.5-43.6-52.6
				c-8.3-4.8-17.3-7.6-26.8-9.3C447.9-0.8,445.4-0.1,445-3z"/>
			<path fill="#3B6EC7" d="M445-3c3.2,1.8,7,1.6,10.4,2.4c21,4.8,36.9,16.9,49.7,33.8c12.8,17,20.3,36.6,27.9,56.1
				c34.3,88.4,65.3,177.9,95.9,267.6c9.4,27.5,18.4,55.2,27.4,82.9c1.5,4.5,2.6,4.3,6,1.7c38.5-29.4,89.2-32.7,128.3-8.6
				c17.5,10.8,30.7,25.9,41.6,43.2c3.7,5.9,6.2,13.5,11.4,17.4c5.1,3.8,13.2,1.8,19.9,2.7c45.4,6.1,81.1,28.3,108.4,64.7
				c7.2,9.6,14,19.5,22.5,28c3.5,3.4,7.2,6.6,11.8,8.1c20.3,6.5,36.5,18.9,50.8,34.2c8.2,8.8,17,16.9,24.7,26.1
				c11.1,13.2,16.3,28.8,18.3,45.7c0.1,1.1-0.4,2.4,1,3c0,1.3,0,2.7,0,4c-0.8,2-0.8,4,0,6c0,6.7,0,13.3,0,20c-0.8,2.3-0.8,4.7,0,7
				c0,2.3,0,4.7,0,7c-1.2,7.2-0.8,14.5-1.4,21.8c-2.2,26.6-6.7,52.8-12.2,78.9c-8.2,38.7-19.6,76.5-32.6,113.8
				c-22.1,63.2-35.8,128.3-45,194.4c-1.8,13.3-3.7,26.7-4.4,40.2c-0.1,2.2-0.6,4.3-2.3,5.9c-164.3,0-328.7,0-493,0
				c-2.9-3.3-2.5-7.5-3.1-11.4c-3.8-22.9-9.9-45.2-18.3-66.9c-4.7-12.1-12.6-21.5-22.2-29.6c-14-11.8-29.4-21.8-44.4-32.3
				c-21.2-14.9-41.4-30.8-59.6-49.3c-8.2-8.3-16.1-17-22.6-26.7c-7.8-11.6-18.4-20.6-27-31.4c-20.1-25.3-34.7-53.6-45.8-83.8
				c-9.9-27.1-17.3-55-26.3-82.4c-12.6-38.5-29.2-75.1-53.3-108c-8.9-12.1-15.3-25.7-21.7-39.3c-11.4-24.2-21.3-49.2-35.3-72.2
				c-3.6-5.9-7.9-11.1-13.7-15c-8.5-5.8-14.1-13.4-15.8-23.7c0-5,0-10,0-15c2.1-14.6,11.2-24.5,22.2-33c16.3-12.6,35-19.1,55.3-21.2
				c44.5-4.6,81.6,11.7,113.3,41.8c25.6,24.3,45.4,53.2,63.9,82.9c16.7,26.7,31.4,54.6,47.8,81.5c9.9,16.2,20.2,32,33.5,45.9
				c16.2,16.9,35.3,9.6,45-5.5c7.4-11.6,10-24.6,10.6-38.1c1.5-34.3-6.2-67.2-16-99.7c-9.3-31.1-22.3-61-32-92
				c-12.1-38.3-23.1-76.9-33.3-115.8c-21-80.2-38.2-161.2-55.8-242.1c-2.2-9.9-5.2-19.7-6.3-29.8c-3.1-27.9,3-53.3,22.7-73.9
				c11.5-12,25.6-20.2,42.8-21.6c0.8-0.1,1.7,0.1,2.4-0.5C426.3-3,435.7-3,445-3z"/>
			<path fill="#FEFEFE" d="M417-3c-1.1,1.7-3,1.2-4.5,1.5c-32.9,7.3-56.5,32.8-61.6,66.2c-2.6,17.2,0.2,33.7,4,50.4
				c13.6,59.5,25.8,119.3,40.1,178.6c18.2,75.7,37.4,151.1,64,224.4c10.8,29.7,21.7,59.3,28.5,90.3c4.7,21.4,7.7,42.9,6.4,64.9
				c-0.7,12.4-2.9,24.5-9.2,35.4c-5.8,10.1-14,17.3-26.2,18.6c-7.8,0.9-13.8-2.8-19.4-7.6c-9.4-8.1-16.7-18.1-23.6-28.3
				c-19.1-28.5-34.9-59-52.5-88.4c-17.3-28.9-35.8-56.9-58.2-82.2c-21.7-24.6-47-43.9-79.3-52.1c-35.8-9.2-69.7-4.8-100.5,16.7
				c-11.2,7.8-19.6,18-23.1,31.6c-0.1,0.4-0.6,0.7-0.9,1.1c0-172.2,0-344.5-0.1-516.7c0-3.4,0.5-4.4,4.3-4.4C209.1-3,313.1-3,417-3z
				"/>
			<path fill="#FEFEFE" d="M101,533c1.5,0.7,1.3,2.2,1.7,3.4c2.5,7.5,6.8,13.8,13.4,18.2c7,4.6,12.1,10.9,16.3,17.9
				C143.8,591,152,611,161,630.7c9.8,21.4,20.4,42.2,34,61.5c25.2,35.8,40.4,76.3,53,117.9c9.8,32.5,19.1,65.2,34,95.8
				c12.8,26.3,29.3,49.9,49.7,70.9c8.2,8.5,14.3,18.8,22.2,27.7c22.2,25.2,48.6,45.4,76.1,64.5c12.5,8.6,25,17.2,36.7,26.8
				c11.2,9.2,19.5,20.1,24.5,33.9c9,24.5,15,49.6,18.8,75.4c-134.8,0-269.7,0-404.5,0.1c-3.7,0-4.6-0.8-4.6-4.6
				C101,978,101,755.5,101,533z"/>
			<path fill="#FEFEFE" d="M1003,1205c2.7-25.5,5.8-50.9,9.7-76.2c9-57.3,22.8-113.4,41.7-168.2c14.4-41.7,26.8-83.9,35-127.3
				c5-26.2,8.3-52.6,10.5-79.1c0.1-1.4-0.6-3.1,1-4.1c0,150.2,0,300.3,0.1,450.5c0,3.7-0.8,4.6-4.6,4.6
				C1065.3,1204.9,1034.2,1205,1003,1205z"/>
			<path fill="#7096D6" d="M1101,743c-1.7-2.3-1.5-4.7,0-7C1101,738.3,1101,740.7,1101,743z"/>
			<path fill="#769BD8" d="M1101,716c-1.4-2-1.7-4,0-6C1101,712,1101,714,1101,716z"/>
			<path fill="#FEFEFE" d="M754.5,1153.3c-65,0-130,0-195,0.1c-4,0-5.7-1-6.7-5.1c-2.8-11.3-6.8-22.2-10.4-33.3
				c-8.3-25.7-24.3-45.5-45.2-62c-19.8-15.6-41.1-29-61.1-44.2c-22.1-16.9-41.9-35.9-57.9-58.9c-6.4-9.2-15.2-16.3-22.2-25
				c-19.6-24.4-32.1-52.3-41.9-81.8c-10.5-31.7-18.9-64.1-30.9-95.4c-12-31.2-26.9-60.9-46.3-88.2c-12.8-18.1-21.5-38.2-30.7-58.2
				c-7.4-16-14.4-32.2-23.1-47.6c-5.4-9.6-11.3-18.9-19-26.8c-3.3-3.4-1.6-4.3,1.5-5.6c19.6-8.4,38.9-7.2,58.1,1.2
				c19.2,8.4,33.5,22.6,46.6,38.4c23.7,28.4,42.4,60.1,60.9,91.9c15.3,26.4,29.7,53.3,47.9,77.8c8.4,11.3,17.7,21.7,28.6,30.6
				c34.5,28,77.3,19.9,104-3.3c19.4-16.8,29.3-38.8,33.4-63.7c5.4-32.6,1.5-64.7-5.4-96.7c-7.4-34.3-19.5-67-31.4-99.9
				C487,439.4,471.1,379.5,456,319.3c-17.9-71.5-32.9-143.6-49-215.5c-2.4-10.9-5.6-21.6-3.1-33c3.1-14.4,11.9-21.4,26.5-22.2
				c14.9-0.8,25.6,5.3,33.5,17.6c8.9,13.7,14.6,28.8,20.4,43.8c46.1,121.1,88.7,243.4,128,366.9c1.7,5.2,2.8,10.6,4.8,15.7
				c8.7,22,31.6,28.5,50.7,14.3c8.1-6,14.5-13.7,22-20.4c9.6-8.6,20.3-15.2,33.3-17.1c18.2-2.6,34.8,0.9,48.4,14.2
				c6.6,6.4,11.9,13.9,16.7,21.7c3.8,6.1,7.5,12.2,11.1,18.4C808,538.6,820.7,546,838,546c13.9,0,27.6,1.8,40.7,6.5
				c20.3,7.2,36.1,20.3,49,37.3c9.2,12.2,18.2,24.7,29.1,35.6c9.2,9.2,19.8,16.3,32.2,20.5c8.6,2.9,15.9,7.5,22.3,13.8
				c8.4,8.3,16.6,16.9,24.9,25.3c9.4,9.5,11.5,21.5,11.7,34.1c0.5,24-2.3,47.9-5.4,71.7c-7.8,61.6-27.1,120.3-46.8,178.8
				c-16.1,47.8-26.6,96.8-34.8,146.5c-1.8,11.2-3.6,22.3-5,33.6c-0.5,4.4-3.2,3.8-6,3.8c-52.2,0-104.3,0-156.5,0
				C780.5,1153.3,767.5,1153.3,754.5,1153.3z"/>
		</g>
	</g>
</g>
</svg>
