<?xml version="1.0" encoding="utf-8"?>
<!-- Generator: Adobe Illustrator 18.1.1, SVG Export Plug-In . SVG Version: 6.00 Build 0)  -->
<svg version="1.1" id="Layer_1" xmlns="http://www.w3.org/2000/svg" xmlns:xlink="http://www.w3.org/1999/xlink" x="0px" y="0px"
	 width="615.6px" height="615.6px" viewBox="-300.6 478.3 615.6 615.6" enable-background="new -300.6 478.3 615.6 615.6"
	 xml:space="preserve">
<path fill="#4076C5" d="M141.2,793.3l47.1,47.1c7.2,7.2,7.2,18.1,0,25.3l-14.5,14.5c-7.2,7.2-18.1,7.2-25.3,0l-47.1-47.1
	c-7.2-7.2-18.1-7.2-25.3,0L29,880.2c-7.2,7.2-18.1,7.2-25.3,0l-14.5-14.5c-7.2-7.2-7.2-18.1,0-25.3l47.1-47.1
	c7.2-7.2,7.2-18.1,0-25.3l-47.1-47.1c-7.2-7.2-7.2-18.1,0-25.3L3.6,681c7.2-7.2,18.1-7.2,25.3,0L76,728.1c7.2,7.2,18.1,7.2,25.3,0
	l47.1-47.1c7.2-7.2,18.1-7.2,25.3,0l14.5,14.5c7.2,7.2,7.2,18.1,0,25.3l-47.1,47.1C133.9,778.8,133.9,789.6,141.2,793.3z
	 M300.5,626.7h-409.2c-7.2,0-18.1,3.6-25.3,10.9l-155.7,137.6c-7.2,3.6-10.9,10.9-10.9,10.9s3.6,3.6,10.9,10.9L-134,934.5
	c7.2,3.6,18.1,10.9,25.3,10.9h409.2c7.2,0,14.5-7.2,14.5-14.5V644.8C315,630.3,307.8,626.7,300.5,626.7z"/>
</svg>
