<?xml version="1.0" encoding="utf-8"?>
<!-- Generator: Adobe Illustrator 18.1.1, SVG Export Plug-In . SVG Version: 6.00 Build 0)  -->
<svg version="1.1" id="Layer_1" xmlns="http://www.w3.org/2000/svg" xmlns:xlink="http://www.w3.org/1999/xlink" x="0px" y="0px"
	 viewBox="0 0 1200 1000" enable-background="new 0 0 1200 1000" xml:space="preserve">
<g id="yFhN8D.tif">
	<g>
		<g>
			<path fill="#3B6EC6" d="M1201,463c0,1.7,0,3.3,0,5c-1.4,8.6-1.4,17.4-1.8,26.1c-0.8,16.8-4.8,33-8.9,49.1
				c-6.8,26.7-16.6,52.4-29.1,77c-17.2,33.9-38.8,64.7-64.8,92.6c-35.5,38.1-76.9,67.7-124.1,89.3c-34.2,15.6-70,25.5-107.2,30.7
				c-24.9,3.4-49.9,3.7-74.8,2.4c-46.3-2.4-90.8-13.6-133.1-32.8c-27.1-12.3-52.6-27.3-76.2-45.5c-4.1-3.2-5.9-2.7-7.7,2.2
				c-6.8,17.9-14.5,35.4-24.3,52c-10.2,17.3-22,33.3-35.2,48.4c-21,23.8-45.3,43.6-72.7,59.6c-29.6,17.3-61.3,29.3-95.2,34.7
				c-9.5,1.5-19.2,0.9-28.7,2.2c-2,0-4,0-6,0c-2.3-0.8-4.7-0.8-7,0c-6,0-12,0-18,0c-2-0.8-4-0.8-6,0c-3,0-6,0-9,0
				c-7.5-1.1-15-1-22.5-1.7c-21.5-2-41.9-8.5-61.8-16.4c-43.3-17-80.2-43.3-111.2-77.8C38.5,818.9,14.7,770.6,4,716.1
				c-2-10.4-1.8-21.1-2.5-31.7c-0.1-0.8,0.1-1.7-0.5-2.4c0-2,0-4,0-6c0.8-2,0.8-4,0-6c0-7,0-14,0-21c0.8-2.7,0.8-5.3,0-8
				c0-0.7,0-1.3,0-2c1-1.7,0.3-3.5,0.5-5.2C1.2,600,9.9,568.3,23,537.5c11.7-27.5,27.3-52.6,46.5-75.4c23.8-28.2,51.7-51.3,84-69.1
				c30.2-16.6,62.4-27.7,96.5-32.9c16.5-2.5,33.1-4,49.7-3.5c42.4,1.3,83.2,10.3,121.5,29.1c5.8,2.8,7.4,2,8.3-4.3
				c6.4-45.1,20.4-87.9,41.7-128.1c18.8-35.5,42.6-67.4,71.2-95.9c30.5-30.4,64.9-55.2,103.5-74.1c33.5-16.5,68.8-28,105.8-33.7
				c10.8-1.7,21.7-1.5,32.6-2.2c1.6-0.1,3.3,0.5,4.9-0.5c0.7,0,1.3,0,2,0c2.2,1.1,4.6,0.3,6.9,0.5c2-0.3,4.1,0.6,6.1-0.5
				c6.7,0,13.3,0,20,0c1.6,1,3.4,0.3,5.1,0.5c2-0.3,4,0.5,5.9-0.5c1.7,0,3.3,0,5,0c8.7,1.3,17.4,1.2,26.1,1.7
				c18.5,1.1,36.3,5.4,54,10.5c51.4,14.8,97.9,39.2,139.1,73.3c37.8,31.3,68.9,68.4,93.1,111.2c22.8,40.5,38,83.6,45.7,129.3
				c2,11.9,1.8,24,2.6,36c0.1,1.6-0.5,3.3,0.5,4.9c0,1.7,0,3.3,0,5c-1,1.9-0.2,3.9-0.5,5.9c0.2,1.7-0.5,3.5,0.5,5.1c0,7,0,14,0,21
				c-1.1,1.9-0.2,4-0.5,6C1200.8,459,1199.9,461.1,1201,463z"/>
			<path fill="#FEFEFE" d="M789,47c-6.6,2.3-13.6,1.9-20.5,2.7c-63,7.7-120.8,29.4-172.6,66.1C510.1,176.6,457,259.1,435.3,361.9
				c-1.9,8.8-3.2,17.7-4.2,26.6c-0.5,4.3-1.6,4.4-5.1,2.6c-28.5-14.7-58.6-24.6-90.4-28.8c-84.3-11-160.1,9.7-225.9,63.7
				c-59,48.4-93.4,111.3-105.5,186.6c-1.1,7.1-1.6,14.2-2.4,21.3c-0.2,0.7-0.5,0.8-0.9,0.1C1,439.8,1,245.7,0.9,51.5
				c0-3.7,0.8-4.6,4.6-4.6C266.7,47,527.8,47,789,47z"/>
			<path fill="#FEFEFE" d="M317,956c5.6-2.4,11.6-1.8,17.4-2.7C435.3,937,508.6,882.6,556,792.6c6.6-12.5,11.9-25.7,16.1-39.2
				c1.3-4.1,2.3-4.9,6-1.9c31.2,24.7,65.5,43.9,102.7,57.9c129.2,48.8,278.6,22.1,382.8-68.6c70.4-61.3,113.9-138,131.2-229.7
				c2.5-13.1,3.9-26.4,5.1-39.6c0.1-1.2-0.5-2.7,1.1-3.5c0,161.1,0,322.2,0.1,483.3c0,4.2-1,4.8-4.9,4.8
				C903.1,956,610.1,956,317,956z"/>
			<path fill="#FEFEFE" d="M1201,414c-2.3-6.8-1.9-14-2.7-20.9c-8-66.6-30.9-127.6-69.9-182.1c-58.2-81.3-136.2-133.5-234-155.5
				c-16.9-3.8-34.1-6-51.3-7.4c-1.1-0.1-2.4,0.4-3-1c118.8,0,237.7,0,356.5-0.1c3.7,0,4.6,0.8,4.6,4.6
				C1201,172.3,1201,293.2,1201,414z"/>
			<path fill="#FEFEFE" d="M1,682c2.4,5.4,1.9,11.3,2.8,16.9c17.4,107.8,74.9,185.7,173.8,232.4c28.2,13.3,58.4,20.4,89.4,23.5
				c1.4,0.1,3.1-0.6,4,1.2c-88.6,0-177.2,0-265.8,0.1c-3.6,0-4.3-0.7-4.3-4.3C1,861.8,1,771.9,1,682z"/>
			<path fill="#6890D4" d="M1,641c1.8,2.7,1.1,5.3,0,8C1,646.3,1,643.7,1,641z"/>
			<path fill="#7A9DD9" d="M304,956c2.3-0.9,4.7-1.7,7,0C308.7,956,306.3,956,304,956z"/>
			<path fill="#96B1E1" d="M797.9,47.8c-2.3-0.3-4.8,1.2-6.9-0.8c2.3,0,4.7,0,7,0C798.7,47.4,798.7,47.7,797.9,47.8z"/>
			<path fill="#6A92D5" d="M1200.2,457.1c-0.2-2.1-0.2-4.2,0.8-6.1c0,2,0,4,0,6c-0.1,0.3-0.2,0.5-0.3,0.8
				C1200.5,457.6,1200.3,457.3,1200.2,457.1z"/>
			<path fill="#90AEDF" d="M1200.2,457.1c0.3,0,0.6,0,0.8-0.1c0,2,0,4,0,6C1199.1,461.3,1200.3,459.1,1200.2,457.1z"/>
			<path fill="#88A7DD" d="M1200.1,424.9c0.2-2-0.9-4.1,0.9-5.9c0,2,0,4,0,6C1200.6,425.7,1200.3,425.7,1200.1,424.9z"/>
			<path fill="#83A4DC" d="M835,47c-1.8,1.7-3.9,0.7-5.9,0.8c-0.8-0.2-0.8-0.5-0.1-0.8C831,47,833,47,835,47z"/>
			<path fill="#80A2DB" d="M1,670c1,2,1.7,4,0,6C1,674,1,672,1,670z"/>
			<path fill="#6A92D5" d="M797.9,47.8c0-0.3,0.1-0.6,0.1-0.8c2,0,4,0,6,0C802.1,48.1,800,48.1,797.9,47.8z"/>
			<path fill="#608AD2" d="M280,956c2-1.5,4-1.1,6,0C284,956,282,956,280,956z"/>
			<path fill="#5F89D2" d="M1200.1,424.9c0.3,0,0.6,0.1,0.9,0.1c0,1.7,0,3.3,0,5C1200,428.4,1199.9,426.7,1200.1,424.9z"/>
			<path fill="#BFD0EC" d="M1,634c0.3-0.1,0.6-0.1,0.9-0.1c0.1,1.8,0.7,3.6-0.9,5.1C1,637.3,1,635.7,1,634z"/>
			<path fill="#658ED3" d="M829,47c0,0.3,0.1,0.6,0.1,0.8c-1.8,0.2-3.5,0.1-5.1-0.8C825.7,47,827.3,47,829,47z"/>
			<path fill="#FEFEFE" d="M865.2,294.5c0,18.2,0.4,36.3-0.1,54.5c-0.6,22.3,16.4,37.8,37,37.4c35-0.8,70-0.2,105-0.2
				c21.9,0,36.4,14.2,36.6,36.1c0.1,11.5,0.1,23,0,34.5c-0.2,22-14.5,36.2-36.5,36.2c-35.5,0-71,0-106.5,0
				c-20.8,0-35.5,14.6-35.6,35.6c-0.1,36.3-0.5,72.7,0.2,109c0.4,20.2-15,38-36.9,36.8c-11-0.6-22,0-33-0.1
				c-20.6-0.1-35.2-14.7-35.2-35.3c-0.1-36.7,0-73.3,0-110c0-18.6-10.9-32.2-28.1-35.5c-2.4-0.5-5-0.5-7.5-0.5c-35.5,0-71,0-106.5,0
				c-21.9,0-36.2-14.3-36.2-36.3c0-12-0.1-24,0-36c0.1-19.5,15-34.4,34.6-34.5c35.7-0.1,71.3-0.6,107,0.2
				c20.7,0.4,37.2-15.6,36.8-37c-0.6-35.8,0.2-71.7-0.3-107.5c-0.3-22.6,17.1-38.4,37.2-37.1c11.3,0.7,22.7,0.1,34,0.1
				c18.6,0.1,33.5,14.5,33.8,33.1C865.4,256.8,865.1,275.7,865.2,294.5C865.1,294.5,865.2,294.5,865.2,294.5z"/>
			<path fill="#FEFEFE" d="M293.2,704.2c-42.8,0-85.6,0-128.4,0c-21.4,0-35.3-13.8-35.4-35.3c0-8,0-16,0-24
				c0.1-20.8,14.2-34.9,34.8-34.9c86.1,0,172.3,0,258.4,0c20.4,0,34.4,14.1,34.5,34.6c0,8.3,0,16.7,0,25
				c-0.1,20.6-14,34.5-34.5,34.5C379.5,704.2,336.3,704.2,293.2,704.2z"/>
		</g>
	</g>
</g>
</svg>
