<?xml version="1.0" encoding="utf-8"?>
<!-- Generator: Adobe Illustrator 18.1.1, SVG Export Plug-In . SVG Version: 6.00 Build 0)  -->
<svg version="1.1" id="Layer_1" xmlns="http://www.w3.org/2000/svg" xmlns:xlink="http://www.w3.org/1999/xlink" x="0px" y="0px"
	 viewBox="0 0 1000 1000" enable-background="new 0 0 1000 1000" xml:space="preserve">
<g id="_x32_F2CDv.tif">
	<g>
		<g>
			<path fill="#3B6EC7" d="M498,1c1,0,2,0,3,0c20.5,3.8,39.5,12.3,59.3,18c39.6,11.4,79.7,20.4,120.7,24.6
				c17.7,1.8,35.5,3.3,53.3,2.8c26.8-0.9,53.5-2.9,80.1-6.2c43.2-5.4,85.9-13.2,128.3-22.7c8.9-2,17.8-4.2,26.8-6.2
				c7.4-1.7,8.7-1,10.6,6.3c5.7,21.1,9.6,42.5,13.2,64.1c4.2,25.7,6.4,51.5,6.7,77.5c0,5.1,0.4,10.3,0.4,15.4c0,1.7,0,3.4,0,5
				c0.2,2.1-0.5,4.3,0.5,6.4c0,0.7,0,1.3,0,2c-1.1,2-0.2,4.1-0.5,6.1c0.2,2.3-0.6,4.7,0.5,6.9c0,10.7,0,21.3,0,32
				c-1.1,2.6-0.2,5.4-0.5,8.1c0,1.9,0,3.9,0,5.8c0,1.7,0,3.3,0,5c0.3,2.7-0.6,5.5,0.5,8.1c0,1,0,2,0,3c-1,1.6-0.3,3.5-0.5,5.2
				c-0.4,22.6-0.4,45.3-2.3,67.8c-3,36.3-8.2,72.4-15.1,108.3c-10.8,56.3-26.4,111.1-48.4,164.1c-23.7,57.3-54.1,110.7-93.3,158.9
				c-13.6,16.7-27.9,32.7-43.4,47.6c-20.5,19.6-42.4,37.5-64.7,54.9c-31.1,24.3-62.8,47.9-95.8,69.6c-25,16.5-50.5,32.3-77.5,45.5
				c-9.6,4.7-19.4,8.9-29.4,12.5c-7,2.5-14.4,2.1-21.5,3.7c-6.3,0-12.7,0-19,0c-25.6-2-47.3-14.3-69.1-26.1
				c-45.8-24.9-88.2-55-129.7-86.4c-27-20.4-53.7-41.1-78.6-64.1c-27.7-25.7-52.4-54-74.3-84.8c-19.7-27.6-36.9-56.7-51.8-87.1
				C64.8,608.4,48.1,562.4,35.1,515C23.9,474.1,15.6,432.7,10,390.7c-3.3-24.4-6.6-48.8-7.1-73.5c-0.3-15.9-0.9-31.9-1.4-47.8
				c0-0.8,0.1-1.7-0.5-2.4c0-1,0-2,0-3c1.1-2,0.2-4.2,0.5-6.3c0-1.9,0-3.9,0-5.8c0-2.3,0-4.6,0-6.8c-0.3-4,0.6-8-0.5-12
				c0-11,0-22,0-33c1.1-3,0.2-6,0.5-9c0-2,0-3.9,0-5.9c0-1.7,0-3.4,0-5.1c0-1.7,0-3.4,0-5.2C1.3,122.4,7.9,70.8,21.1,20
				c2.7-10.4,3.3-10.8,13.7-8.2c44.8,11.1,90.1,20,135.8,26.3c21.4,2.9,42.9,5.3,64.6,6.6c11.5,0.7,22.9,1.6,34.4,1.6
				c40.1,0.2,79.7-5,118.9-13.6c31.5-7,62.3-16.1,92.4-27.3C486.5,3.4,492.5,3,498,1z"/>
			<path fill="#FEFEFE" d="M509,1001c3.9-2.3,8.5-2.3,12.7-3.6c24.7-7.5,47.4-19.3,69.5-32.4c68.5-40.4,132.3-87.3,191.7-140
				c61-54.1,105.6-120.3,139.3-194.2c30-65.8,49.4-134.8,61.8-205.9c9-51.9,13.8-104.3,16.1-156.9c0.3-0.7,0.6-0.7,0.9,0
				c0,242.8,0,485.7,0.1,728.5c0,3.7-0.8,4.6-4.6,4.6C834,1001,671.5,1001,509,1001z"/>
			<path fill="#FEFEFE" d="M1,267c1.6,0.8,1,2.3,1,3.6c2.2,54,7.4,107.7,17,160.9c17.5,97.3,47.9,190,100.2,274.6
				c32.7,52.9,72.7,99.4,120.9,138.8c54.4,44.4,110.4,86.5,171.2,121.8c22.3,13,45.2,24.9,70.3,31.8c2.8,0.8,5.9,0.6,8.3,2.6
				c-161.4,0-322.9,0-484.3,0.1c-4.2,0-4.8-1-4.8-4.9C1,753.1,1,510.1,1,267z"/>
			<path fill="#FEFEFE" d="M1000.2,174.9C997.6,122.3,991.1,70.2,978,19c-1.8-6.8-1.8-6.8-8.7-5.1C915.6,27,861.4,37.4,806.4,43.7
				c-40.3,4.6-80.6,7-121.1,3c-46-4.6-90.9-14.6-135.1-28.2c-15.1-4.7-30.1-9.7-44.8-15.4c-1.5-0.6-3-1.4-4.4-2.1
				c165,0,330.1,0,495.1-0.1c3.8,0,5,0.4,5,4.7c-0.2,56.5-0.1,112.9-0.1,169.4C1000.7,175.7,1000.4,175.7,1000.2,174.9z"/>
			<path fill="#FEFEFE" d="M498,1c-2.8,2.8-6.7,3.4-10.2,4.7c-49.4,18.6-100.1,32-152.5,39c-37.3,5-74.7,4.9-112.2,1.7
				C157.7,40.9,93.5,29.1,29.9,13.1c-3.6-0.9-4.4,0.4-5.3,3.5C16.9,44.9,11.9,73.7,8,102.8c-3.2,24-5.1,48-6.2,72.2
				c-0.2,0.7-0.5,0.8-0.8,0.1C1,118.5,1.1,62.1,0.9,5.6c0-4.3,1.2-4.7,5-4.7C169.9,1,334,1,498,1z"/>
			<path fill="#5E89D1" d="M1,233c1.7,3.9,0.8,8,0.9,12.1c-0.4,0.7-0.7,0.7-0.9-0.1C1,241,1,237,1,233z"/>
			<path fill="#5E89D1" d="M1.9,190.9c0.1,3.1,0.6,6.2-0.9,9.1c0-3,0-6,0-9C1.2,190.2,1.5,190.2,1.9,190.9z"/>
			<path fill="#A7BEE6" d="M1001,260c-2.1-2.5-0.6-5.3-0.8-7.9c0.2-0.7,0.5-0.8,0.8-0.1C1001,254.7,1001,257.3,1001,260z"/>
			<path fill="#5985D0" d="M1000.1,241.1c0-2.7-0.5-5.5,0.9-8.1c0,2.7,0,5.3,0,8C1000.8,241.7,1000.5,241.7,1000.1,241.1z"/>
			<path fill="#5784CF" d="M1001,201c-1.3-2.2-1-4.7-0.9-7.1c0.4-0.7,0.7-0.7,0.9,0.1C1001,196.3,1001,198.7,1001,201z"/>
			<path fill="#7FA1DA" d="M1,245c0.3,0,0.6,0,0.9,0.1c0,2.3,0,4.7,0,7c-0.3,0.7-0.6,0.7-0.9-0.1C1,249.7,1,247.3,1,245z"/>
			<path fill="#C6D5EF" d="M1.8,258.1c-0.2,2,1.1,4.2-0.8,5.9c0-2,0-4,0-6C1.3,257.3,1.6,257.3,1.8,258.1z"/>
			<path fill="#A1BAE4" d="M1.8,258.1l-0.4,0L1,258c0-2,0-4,0-6c0.3,0,0.6,0.1,0.9,0.1C1.9,254.1,1.8,256.1,1.8,258.1z"/>
			<path fill="#6F95D6" d="M1000.1,241.1c0.3,0,0.6,0,0.9-0.1c0,2,0,4,0,6c-0.2,0.7-0.5,0.8-0.9,0.1
				C1000.1,245.1,1000.1,243.1,1000.1,241.1z"/>
			<path fill="#7197D7" d="M1001,194c-0.3,0-0.6-0.1-0.9-0.1c0.1-2-0.6-4.1,0.9-5.9C1001,190,1001,192,1001,194z"/>
			<path fill="#83A4DB" d="M1.9,190.9c-0.3,0-0.6,0.1-0.9,0.1c0-2,0-4,0-6c0.2-0.8,0.5-0.8,0.9-0.1C1.9,186.9,1.9,188.9,1.9,190.9z"
				/>
			<path fill="#A8BFE6" d="M1001,186c-1.6-1.8-0.9-4-0.8-6.1c0.3-0.7,0.6-0.7,0.8,0.1C1001,182,1001,184,1001,186z"/>
			<path fill="#89A8DD" d="M1000.1,247.1c0.3,0,0.6,0,0.9-0.1c0,1.7,0,3.3,0,5c-0.3,0.1-0.5,0.1-0.8,0.1
				C1000.2,250.4,1000.1,248.7,1000.1,247.1z"/>
			<path fill="#E6EDF8" d="M1001,268l-0.4,0l-0.4,0c0.1-1.7-0.9-3.6,0.9-5C1001,264.7,1001,266.3,1001,268z"/>
			<path fill="#A2BBE4" d="M1.9,184.9c-0.3,0-0.6,0-0.9,0.1c0-1.7,0-3.3,0-5c0.2-0.8,0.5-0.8,0.8-0.1C1.8,181.6,1.9,183.3,1.9,184.9
				z"/>
			<path fill="#CCD9F0" d="M1001,180c-0.3,0-0.6-0.1-0.8-0.1c0-1.7,0-3.3,0-5c0.3,0,0.6,0,0.8,0.1C1001,176.7,1001,178.3,1001,180z"
				/>
			<path fill="#CCD9F0" d="M1.8,179.9c-0.3,0-0.6,0-0.8,0.1c0-1.7,0-3.3,0-5c0.3-0.1,0.5-0.1,0.8-0.1C1.8,176.6,1.8,178.3,1.8,179.9
				z"/>
			<path fill="#FEFEFE" d="M500.8,317.7c121.5,0,243,0,364.5-0.1c4.2,0,6.2,0.4,5.7,5.6c-6,61.5-16.4,122.1-35,181.1
				c-19.9,63.2-48.1,122.3-89,174.8c-24.5,31.4-53.7,57.8-84.8,82.3c-45.9,36.1-92.9,70.4-143.8,99.1c-6.1,3.4-12.2,9-18.7,8.7
				c-6.2-0.3-12.3-5.4-18.3-8.7c-49.8-28-95.7-61.7-140.5-97c-30.2-23.8-58.9-49-82.9-79.2C219.4,636,192,582,172,523.9
				c-17.8-51.7-29.2-104.8-36.1-158.9c-1.7-13.7-3-27.5-4.8-41.2c-0.5-4.3,0.3-5.9,5.2-5.9c106,0.1,212,0.1,318,0
				c15.5,0,31,0,46.5,0C500.8,317.9,500.8,317.8,500.8,317.7z"/>
		</g>
	</g>
</g>
</svg>
