<?xml version="1.0" encoding="utf-8"?>
<!-- Generator: Adobe Illustrator 18.1.1, SVG Export Plug-In . SVG Version: 6.00 Build 0)  -->
<svg version="1.1" id="Layer_1" xmlns="http://www.w3.org/2000/svg" xmlns:xlink="http://www.w3.org/1999/xlink" x="0px" y="0px"
	 viewBox="0 0 1000 1000" enable-background="new 0 0 1000 1000" xml:space="preserve">
<g id="VnyD9m.tif">
	<g>
		<path fill="#3B6FC7" d="M947.7,346.5c0,13,0,26,0,39c-6.2,6.6-4.7,15.8-8.2,23.5c-20.2,44.2-54.1,69.9-102.7,72.4
			c-49.6,2.6-86.7-19.6-111.2-62.8c-1.8-3.2-2-7.6-5.8-9.4c-23,46.3-58.7,72.9-110.9,72.4c-52.2-0.5-87.5-28.3-109.8-75.5
			c-22.2,47.6-57.3,74.5-108.8,75.5c-51.4,1-87.2-25.2-111.2-70.3c-2.8,5-4.8,9-7.1,12.7c-25.9,41.2-63.4,61.3-111.8,57.2
			c-48.5-4.1-81.6-30.7-100.3-75.6c-2.7-6.6-1-14.7-7-20.1c0-13.8,0-27.6,0-41.4c0.6-0.5,1.6-0.9,1.7-1.5
			c15.5-57.8,30.7-115.8,46.7-173.5c10.3-37.4,19.7-75.2,37-110.3c241.4,0,482.8,0,724.2,0c3.3,7.4,7,14.6,9.8,22.1
			c17,46,28.4,93.6,41.4,140.8C925,263.3,936.3,304.9,947.7,346.5z"/>
		<path fill="#3B6FC7" d="M52.9,939c0-4.1,0-8.1,0-12.2c1.8-3.6,3.7-7.1,5.3-10.8c22.8-51.5,41.6-104.8,69.7-153.9
			c3.6-6.3,5.2-12.3,5.2-19.5c-0.2-67-0.1-134.1,0-201.1c0-4.6-1.5-9.6,1.9-14.3c48.1,10.4,92.3,0,134.9-28.2
			c0,83.9,0,165.3,0,246.7c154.7,0,308,0,462.6,0c0-82,0-163.1,0-245.8c42.4,27.9,86.8,37.5,136.1,26.8c0,6.1,0,10.9,0,15.7
			c0,66.6,0.1,133.3-0.1,199.9c0,7.9,1.8,14.7,5.6,21.9c14.1,26,26.9,52.6,37.9,80.2c11.1,27.8,23.8,55,35.8,82.4
			c0,4.1,0,8.1,0,12.2c-6.2,5.3-11,12.4-19.5,14.6c-285.3,0-570.5,0-855.8,0C63.9,951.4,59,944.3,52.9,939z"/>
		<path fill="#FDFDFE" d="M947.7,926.8c-12-27.4-24.7-54.6-35.8-82.4c-11-27.6-23.8-54.2-37.9-80.2c-3.9-7.1-5.6-13.9-5.6-21.9
			c0.2-66.6,0.1-133.3,0.1-199.9c0-4.8,0-9.6,0-15.7c-49.3,10.7-93.7,1.2-136.1-26.8c0,82.7,0,163.8,0,245.8
			c-154.6,0-307.9,0-462.6,0c0-81.4,0-162.8,0-246.7c-42.6,28.2-86.8,38.6-134.9,28.2c-3.4,4.6-1.9,9.6-1.9,14.3
			c-0.1,67-0.1,134.1,0,201.1c0,7.2-1.7,13.2-5.2,19.5c-28,49.1-46.8,102.4-69.7,153.9c-1.6,3.6-3.5,7.2-5.3,10.8
			c0-180.4,0-360.9,0-541.3c5.9,5.4,4.2,13.5,7,20.1c18.7,44.9,51.8,71.5,100.3,75.6c48.4,4.1,85.9-16,111.8-57.2
			c2.3-3.7,4.3-7.7,7.1-12.7c24,45.1,59.8,71.3,111.2,70.3c51.5-1,86.6-27.9,108.8-75.5c22.3,47.2,57.6,75,109.8,75.5
			c52.2,0.5,87.9-26.1,110.9-72.4c3.8,1.8,4,6.3,5.8,9.4c24.5,43.2,61.7,65.4,111.2,62.8c48.6-2.6,82.5-28.2,102.7-72.4
			c3.5-7.7,2-16.9,8.2-23.5C947.7,566,947.7,746.4,947.7,926.8z"/>
		<path fill="#FDFDFE" d="M947.7,346.5c-11.4-41.6-22.6-83.2-34.1-124.8c-13-47.2-24.4-94.8-41.4-140.8c-2.8-7.5-6.5-14.8-9.8-22.1
			c28.4,0,56.9,0,85.3,0C947.7,154.7,947.7,250.6,947.7,346.5z"/>
		<path fill="#FDFDFE" d="M138.2,58.8c-17.3,35.1-26.6,72.9-37,110.3c-16,57.7-31.1,115.7-46.7,173.5c-0.2,0.6-1.1,1-1.7,1.5
			c0-95.1,0-190.2,0-285.3C81.5,58.8,109.8,58.8,138.2,58.8z"/>
		<path fill="#FDFDFE" d="M52.9,939c6.2,5.3,11,12.4,19.5,14.6c-6.5,0-13,0-19.5,0C52.9,948.8,52.9,943.9,52.9,939z"/>
		<path fill="#FDFDFE" d="M928.2,953.6c8.5-2.2,13.3-9.3,19.5-14.6c0,4.9,0,9.8,0,14.6C941.2,953.6,934.7,953.6,928.2,953.6z"/>
	</g>
</g>
</svg>
