<?xml version="1.0" encoding="utf-8"?>
<!-- Generator: Adobe Illustrator 18.1.1, SVG Export Plug-In . SVG Version: 6.00 Build 0)  -->
<svg version="1.1" id="Layer_1" xmlns="http://www.w3.org/2000/svg" xmlns:xlink="http://www.w3.org/1999/xlink" x="0px" y="0px"
	 viewBox="0 0 1000 1000" enable-background="new 0 0 1000 1000" xml:space="preserve">
<g id="xGLuTR.tif">
	<g>
		<g>
			<path fill="#DCDCDC" d="M473.6,18.3c18.3,0,36.5,0,54.8,0c5.6,1.2,11.2,0.6,16.8,0.8c13.6,0.4,26.9,2.1,40.2,4.6
				c17,3.1,34.1,6.3,50.5,11.7c35.9,11.9,71.4,24.8,104,44.2c22.4,13.4,44.8,27,64.6,44.1c20.3,17.4,40.1,35.2,57.8,55.4
				c18.3,20.9,34.8,43,49.5,66.5c17.6,28.1,31.8,57.9,43.2,89c12.7,35,21.6,71,25.8,108.1c1.1,9.8,1.4,19.7,1.2,29.6
				c0.2,1.6-0.5,3.4,0.5,4.9c0,16.1,0,32.1,0,48.2c-1,1.6-0.3,3.3-0.5,4.9c0.3,36.2-7.2,71.2-16.9,105.8
				c-8.7,30.7-20.9,60-35.4,88.4c-9,17.7-19.3,34.6-30.5,51c-11.3,16.6-24.1,31.8-36.9,47.1c-13.4,16-29,29.7-44.2,43.8
				c-17.4,16.1-37,29.2-56.6,42.4c-30,20.2-62.7,34.4-96.3,47.5c-36.7,14.3-74.7,22.1-113.6,26.4c-13.7,1.5-27.6,1.3-41.4,1.3
				c-21.1-0.1-42.2,0.4-63.1-1.6c-30.8-3-61.1-9.1-90.4-18.8c-35.6-11.8-70.3-26-102.3-45.7c-22-13.5-43.7-27.7-63.1-44.7
				c-15.4-13.5-30.9-26.9-44.6-42.1c-25-27.8-47.5-57.5-65.9-90.1c-13.8-24.6-25.7-50.1-35.1-76.7C33.6,630.3,25,595.5,21,559.7
				c-1-8.7-1.3-17.5-1.2-26.3c0-1.7,0.5-3.4-0.4-5.1c0-18.3,0-36.5,0-54.8c1.2-5.4,0.6-10.9,0.8-16.3c0.5-20.6,4.5-40.6,8.7-60.6
				c8-37.9,21-74.2,37.9-108.9c11.4-23.5,24.8-45.9,40-67.3c18-25.4,38.1-48.9,60.6-70.3c25.5-24.2,53.4-45.2,83.4-63.7
				c30-18.4,61.9-32,94.7-44.1c30.9-11.3,62.8-18.2,95.3-22.2c10-1.2,20-1.4,30.1-1.4C471.8,18.8,472.8,19.1,473.6,18.3z"/>
			<path fill="#FEFEFE" d="M19.3,528.3c2.2,5.4,1.1,11.1,1.6,16.7c1.8,19.9,4.9,39.5,9.2,58.9c6.8,30.6,16.1,60.3,28.7,89
				C65,706.7,72,720,78.8,733.5c8.2,16.4,18.8,31.1,28.9,46.3c9.8,14.6,21.4,27.7,32.6,41.2c14.1,17,30.7,31.3,46.9,46.2
				c18.2,16.6,38.6,29.9,59,43.4c28.7,19.1,60.3,32,92.2,44.6c27.3,10.8,55.7,17.1,84.3,22.2c15.9,2.9,31.9,4.2,48.1,5.2
				c16.5,1.1,33,0.9,49.5,0.6c18-0.4,35.9-2.4,53.7-5.1c27.7-4.2,54.9-10.3,81.3-19.7c12.3-4.4,24.6-9.3,36.7-14.5
				c19.9-8.7,39.6-17.8,57.9-29.5c20.9-13.4,41.9-26.7,60.4-43.2c15.7-13.9,32-27.5,45.6-43.5c12.2-14.3,25-28.2,35.5-43.8
				c9.7-14.5,20.1-28.5,28.2-44c7.3-13.9,14.9-27.7,21.3-42.1c16.2-36.6,27.9-74.7,34.8-114.1c3.1-17.7,5.5-35.6,5.9-53.7
				c0.3-0.6,0.6-0.6,0.9,0c0,150,0,300,0.1,450c0,3.5-0.8,4.3-4.3,4.3c-318.2-0.1-636.5-0.1-954.7,0c-3.5,0-4.3-0.8-4.3-4.3
				C19.3,829.5,19.3,678.9,19.3,528.3z"/>
			<path fill="#FEFEFE" d="M981.7,472.5c-0.8-27.5-5.4-54.5-11.5-81.3c-9.5-41.5-24.6-80.8-44.4-118.3c-10.1-19.2-22-37.3-34.5-55
				c-16.7-23.6-35.8-44.9-56.2-65.1c-7.5-7.4-15.8-13.8-23.6-20.9c-13.9-12.8-29.3-23.5-45.1-33.8c-7-4.5-14.4-8.5-21.3-13
				c-27.9-18.3-59-29.8-90-41.4c-26.4-9.9-53.8-15.7-81.5-20.2c-13.6-2.2-27.3-4-41.1-4.1c-1.4,0-2.9,0.2-4-0.9c150,0,300,0,450-0.1
				c3.5,0,4.3,0.8,4.3,4.3c-0.1,150-0.1,300-0.1,450C982.2,473.1,981.9,473.1,981.7,472.5z"/>
			<path fill="#FEFEFE" d="M473.6,18.3c-5.6,2.1-11.5,1.2-17.1,1.7c-32.3,2.8-64.1,8.5-94.9,18.4c-31.8,10.3-63.2,22.2-92.3,38.8
				c-25.2,14.4-49.9,29.8-72.1,48.6c-16,13.6-32.2,27.1-46.2,42.9c-12.5,14.1-25.5,27.8-36.3,43.2c-9.8,14-19.9,27.9-28.4,42.8
				c-15.5,26.9-28.9,54.7-39.3,84c-10.4,29.3-18,59.5-22.7,90.2c-2.1,13.8-4.1,27.6-4,41.6c0,1.1-0.1,2.2-0.9,3.1
				c0-150.2,0-300.5-0.1-450.7c0-3.8,0.8-4.6,4.6-4.6C173.7,18.3,323.6,18.3,473.6,18.3z"/>
			<path fill="#ECECEC" d="M981.7,472.5c0.3,0,0.6,0,0.9,0c0,1.6,0,3.1,0,4.7C981.1,475.9,981.7,474.1,981.7,472.5z"/>
			<path fill="#EEEEEE" d="M982.6,530.2c-0.3,0-0.6,0-0.9,0c0.1-1.6-0.5-3.4,0.9-4.8C982.6,527,982.6,528.6,982.6,530.2z"/>
			<path fill="#FEFEFE" d="M431.1,82.6c18.5-3,37.2-4.6,56-5.5c16.1-0.8,32.2,0.2,48.4,1.5c11.9,0.9,23.6,2.5,35.4,4.1
				c0.8,0.9,2.1,0.9,2.9,1.8c14.2,1.7,28.1,5.2,41.9,8.9c27.2,7.4,53.7,16.9,78.6,30.3c24.9,13.4,49.3,27.7,71.1,45.9
				c16.1,13.5,32.1,27.2,46.3,42.8c24.2,26.8,45.6,55.6,62.7,87.5c14.7,27.5,26.7,56.2,34.9,86.4c6.2,22.5,10.8,45.4,13.1,68.7
				c1.8,18,3.2,36,2.6,54c-0.6,17.4-1.9,34.7-4.4,52c-3.7,26-9.7,51.5-18.2,76.3c-5.6,16.4-12.2,32.3-19.7,47.9
				c-8.3,17.2-18,33.4-28.2,49.5c-10.4,16.2-22.8,30.7-35,45.5c-13.5,16.3-29.3,30-44.9,44.1c-18.3,16.6-39.2,29.1-59.8,42.3
				c-24.9,15.9-52,26.6-79.6,36.1c-9.2,3.2-18.8,5.1-28,8.2c-17.9,6-36.6,8.5-55.1,11c-8.2,1.1-16.5,1.5-24.8,2.1
				c-11.8,0.9-23.5,1.3-35.3,0.9c-29.5-1.1-58.9-3.6-87.5-11.1c-35.9-9.5-71.2-20.9-103.7-39.2c-24.3-13.7-48.2-28.4-69.5-46.7
				c-15.4-13.3-31-26.7-44.2-42.2c-12.1-14.2-24.6-28.1-34.7-43.8c-8.7-13.5-17.8-26.7-25.1-41c-14.5-28.3-26.8-57.5-35-88.4
				c-5.4-20.2-9.6-40.6-12-61.3c-2.3-20.9-3.8-41.9-2.9-63c1.5-32,5.5-63.6,13.9-94.7c7.2-26.8,16.7-52.6,28.8-77.6
				c14.2-29.4,31.7-56.8,52.3-82.1c17.9-21.9,38-41.7,59.8-59.9c20-16.7,41.9-30.2,64.2-43.4c37.5-22.2,78.2-35.4,120.6-44.2
				c3.8-0.8,7.6-2,11.6-1.9C429,83.5,430.3,83.5,431.1,82.6z"/>
			<path fill="#F0F0F0" d="M431.1,82.6c-0.3,1.7-1.5,1.9-2.9,1.8C428.5,82.7,429.7,82.5,431.1,82.6z"/>
			<path fill="#F0F0F0" d="M573.7,84.4c-1.4,0.1-2.6-0.1-2.9-1.8C572.2,82.5,573.4,82.7,573.7,84.4z"/>
			<path fill="#DCDCDC" d="M336.3,409.3c25.3,0,50.7,0,76,0c9.8,0,14.6-3.2,17.4-12.5c9.5-31.4,18.9-62.9,28.3-94.3
				c4.9-16.6,9.6-33.2,14.5-49.7c2.3-7.6,5.5-14.8,12.1-19.8c12.5-9.5,32.5-6.4,40.7,9.4c4.2,8.1,5.9,16.9,8.5,25.4
				c7.3,23.7,14.3,47.5,21.3,71.3c5.7,19.3,11.3,38.6,17.1,57.8c2.7,9,7.6,12.4,17,12.4c46.9,0,93.8,0,140.7,0
				c6.3,0,12.5-0.3,18.8,0.8c11.7,2,20.5,9.2,22.9,19.6c2.2,9.6-2.3,20.3-12,26.8c-9,6-18.6,11.2-27.6,17.2
				c-23.2,15.5-47.8,28.9-71.3,44c-8.8,5.7-17.9,11-26.7,16.8c-6.8,4.5-8.5,9.3-5.7,16.8c6.5,17.7,13.1,35.4,19.5,53.1
				c9.5,26.1,18.9,52.3,28.4,78.4c2.8,7.8,6,15.5,7.1,23.9c2.4,18.4-12.8,29.8-28.5,28.2c-7-0.7-13.3-3.8-18.9-7.9
				c-13.4-9.9-27.1-19.4-40-29.9c-18.9-15.4-39.1-29-58-44.2c-9.3-7.5-18.9-14.5-28.3-21.8c-4.9-3.8-10.8-3.9-15.6-0.1
				c-26.2,20.5-52.1,41.3-78.1,62c-15.5,12.3-30.6,25-46.7,36.4c-11.6,8.2-30.5,7-38.9-4.5c-5.3-7.3-6-15.3-3.7-23.7
				c1.5-5.3,2.9-10.6,4.7-15.8c12.7-39,25.6-78,38.3-117c1.8-5.4,3.4-10.8,5.1-16.2c2.4-7.4,0.2-13.1-6.4-17.2
				c-30.6-18.9-61.3-37.7-91.9-56.5c-11.5-7.1-23.2-13.8-34.1-21.6c-7.1-5.1-12.5-11.6-12.6-21c-0.2-12.7,7.9-22.4,21.1-25.2
				c3.5-0.8,7.1-1.2,10.7-1.2C286.6,409.3,311.5,409.3,336.3,409.3z"/>
		</g>
	</g>
</g>
<g id="BTM1s9.tif">
	<g>
		<g>
			<path fill="#F7B808" d="M468.9,26.7c20.5,0,41,0,61.5,0c7.8,1,15.6,1.1,23.5,1.3c17.5,0.4,34.4,4,51.3,7.6
				c33.9,7.1,66.5,18.2,98.1,32.4c33.2,15,64.3,33.4,93.4,55.3c22.9,17.2,43.9,36.4,63.3,57.4c22.1,23.9,41.6,49.8,58.3,77.8
				c10.9,18.2,20.6,36.9,28.8,56.4c15.4,36.7,26.5,74.8,32.9,114.2c1.9,11.7,2.4,23.5,2.9,35.3c0.7,18.9,0.4,37.8,0.5,56.8
				c0.2,39.3-6.9,77.3-18,114.9c-9.3,31.3-22.3,61-37.6,89.7c-13.3,24.9-29.2,48.2-47,70.2c-14.1,17.5-29.3,33.9-45.6,49.2
				c-15.5,14.6-31.9,28.1-49.4,40.3c-13.8,9.6-27.3,19.7-42.1,28c-23.8,13.2-48.2,24.8-73.7,34.2c-29.1,10.7-58.9,18.4-89.5,23.6
				c-11.4,1.9-22.8,2.6-34.3,3.2c-5.9,0.3-11.9,0-17.8,0.9c-19.2,0-38.5,0-57.7,0c-7.9-1-16-1.1-23.9-1.3
				c-17.6-0.5-34.7-3.9-51.8-7.6c-43.4-9.3-84.7-24.5-124.1-45c-12.2-6.4-24.3-12.8-35.5-20.8c-22.2-15.8-44.3-31.6-64.5-50
				c-31.2-28.4-58.4-60.1-81.2-95.5c-23.9-37.2-42.5-76.9-55.1-119.4c-6.6-22.4-12.1-45-15.1-68.2c-1.3-10.3-1.3-20.7-1.9-31.1
				c-0.1-1.7,0.5-3.5-0.5-5.1c0-19.9,0-39.8,0-59.6c1-7.6,1.1-15.3,1.3-23c0.5-17,4-33.4,7.6-49.9c5.9-27,14.7-53.1,25-78.7
				c15-37.1,35-71.2,58.8-103.2c17-22.8,36.2-43.8,57-63c28.7-26.5,60.1-49.4,94.4-68.1c27.9-15.3,56.8-28,87-37.8
				c27.6-8.9,55.9-15.5,84.7-19.2c10.9-1.4,22-1.5,33-1.6C467.1,27.2,468.1,27.4,468.9,26.7z"/>
			<path fill="#FEFEFE" d="M528.5,975.3c4.7-2,9.8-1.2,14.7-1.7c74.1-6.5,143.7-27.9,207-66.8C860.5,839,934.8,743.2,968.4,617.2
				c6.5-24.3,10.6-49,12.9-74.1c2.4-26.5,2.6-52.9,0.5-79.3c-3.9-49.1-15.2-96.6-34.6-142c-59-138.4-162-228.2-304.3-274.1
				c-27.4-8.8-55.6-14.2-84.1-17.9c-8.4-1.1-16.9-1.4-25.4-2.1c-1-0.1-2.3,0.5-2.9-0.9c149.7,0,299.5,0,449.2-0.1
				c3.5,0,4.3,0.8,4.3,4.3c-0.1,313.4-0.1,626.7,0,940.1c0,3.5-0.8,4.4-4.3,4.3C829.3,975.3,678.9,975.3,528.5,975.3z"/>
			<path fill="#FEFEFE" d="M17.3,531.3c2.1,3.9,1.3,8.2,1.7,12.3c9.2,95.5,44.6,180.2,105,254.6c30.4,37.4,66.4,68.5,106,95.7
				c53.6,36.8,112.9,59.7,176.2,72.7c20.5,4.2,41.2,7,62.2,7.8c0.9,0,1.9-0.2,2.4,0.9c-149.8,0-299.6,0-449.4,0.1
				c-3.4,0-4.1-0.7-4.1-4.1C17.3,824.6,17.3,678,17.3,531.3z"/>
			<path fill="#FEFEFE" d="M468.9,26.7c-4.1,2-8.5,1.3-12.8,1.7c-82.8,7.5-159,34.2-228,80.4C151.4,160,93.9,227.8,56.8,312.3
				c-16.2,36.9-27.7,75.3-33.9,115.2c-2.2,14-4,28-4.6,42.2c0,0.8,0,1.6-0.9,2c0-147,0-293.9-0.1-440.9c0-3.4,0.7-4.1,4.1-4.1
				C170.5,26.7,319.7,26.7,468.9,26.7z"/>
			<path fill="#FEFEFE" d="M507.1,917.4c-49.4-0.2-91.1-5-131.2-18.3C242.4,854.7,147.2,769.2,98.3,635.7
				c-20-54.6-26.4-111.4-21.5-169.4c4.3-50.8,17.5-99.2,40.2-144.9c55.4-111.5,143.6-185.6,262.7-219.2
				C522,62,653.2,88.6,770.3,179.6c45.8,35.6,81.8,80,108.3,131.6c24.9,48.6,40.4,100,44.9,154.6c13.7,166.5-73.7,324.1-222.7,401.4
				c-22.3,11.6-45.6,20.5-69.2,29C588.9,911.6,544.7,916.4,507.1,917.4z"/>
			<path fill="#F7B808" d="M335.6,410.9c25.1,0,50.2,0,75.3,0c10.9,0,15.1-3.1,18.2-13.4c13.9-46.1,27.8-92.2,41.8-138.3
				c1-3.3,2.1-6.6,3.5-9.8c4.9-11.1,13.4-17.8,25.6-17.9c12.4-0.1,21.2,6.5,26,17.9c5.2,12.4,8.3,25.4,12.2,38.2
				c11.3,37,22.4,74.1,33.7,111.2c2.6,8.4,7.4,11.9,16.4,12c22.6,0,45.1,0,67.7,0c27.1,0,54.3,0,81.4,0c6.5,0,12.9,0.6,19,3.1
				c17,7,21,25.5,8.4,38.9c-3.5,3.7-7.7,6.5-12,9.1c-39.3,23.7-78.5,47.4-117.8,71.1c-8.2,5-9.8,9.7-6.5,18.6
				c17.4,46.6,34.8,93.2,52.1,139.9c2.8,7.5,4.5,15.1,1.6,23c-5,13.8-20.4,19.8-35.9,14.1c-5.4-2-10-5.3-14.5-8.7
				c-40.9-30.4-81.7-60.8-122.6-91.2c-5.6-4.2-10.7-4.2-16.3,0.2c-39,30.3-77.9,60.6-116.8,91c-7.1,5.5-14.5,10-23.8,10.6
				c-17.4,1.2-30.3-12.4-27.4-29.5c2.3-13.4,7.8-25.9,12-38.8c12.2-36.9,24.6-73.7,36.9-110.6c2.5-7.6,0.3-13.4-6.6-17.6
				c-39.8-24-79.6-48-119.5-72c-5.3-3.2-10.3-6.7-14.2-11.7c-8.8-11.6-6.2-26.2,6.1-34c5.6-3.5,11.8-5.3,18.4-5.3
				c25.9-0.1,51.7,0,77.6,0C335.6,411,335.6,411,335.6,410.9z"/>
		</g>
	</g>
</g>
</svg>
